<svg xmlns="http://www.w3.org/2000/svg" width="1200" height="960" viewBox="0 0 1200 960" role="img" aria-labelledby="title desc">
  <title id="title">Piclaw RAM reduction progress</title>
  <desc id="desc">Cold-session experiment progression and chronological live-service memory history from docs/performance/memory-footprint-history.md.</desc>
  <defs>
    <linearGradient id="bg" x1="0" y1="0" x2="0" y2="1">
      <stop offset="0%" stop-color="#0f172a"/>
      <stop offset="100%" stop-color="#111827"/>
    </linearGradient>
    <linearGradient id="barBlue" x1="0" y1="0" x2="0" y2="1">
      <stop offset="0%" stop-color="#60a5fa"/>
      <stop offset="100%" stop-color="#2563eb"/>
    </linearGradient>
    <linearGradient id="barGreen" x1="0" y1="0" x2="0" y2="1">
      <stop offset="0%" stop-color="#34d399"/>
      <stop offset="100%" stop-color="#059669"/>
    </linearGradient>
    <filter id="shadow" x="-20%" y="-20%" width="140%" height="140%">
      <feDropShadow dx="0" dy="8" stdDeviation="16" flood-color="#000000" flood-opacity="0.35"/>
    </filter>
    <style>
      .h1 { font: 700 28px ui-sans-serif, system-ui, -apple-system, Segoe UI, Roboto, sans-serif; fill: #f8fafc; }
      .h2 { font: 700 18px ui-sans-serif, system-ui, -apple-system, Segoe UI, Roboto, sans-serif; fill: #e5e7eb; }
      .body { font: 13px ui-sans-serif, system-ui, -apple-system, Segoe UI, Roboto, sans-serif; fill: #cbd5e1; }
      .small { font: 12px ui-sans-serif, system-ui, -apple-system, Segoe UI, Roboto, sans-serif; fill: #94a3b8; }
      .tiny { font: 11px ui-sans-serif, system-ui, -apple-system, Segoe UI, Roboto, sans-serif; fill: #7c8aa5; }
      .axis { font: 12px ui-sans-serif, system-ui, -apple-system, Segoe UI, Roboto, sans-serif; fill: #94a3b8; }
      .value { font: 700 12px ui-sans-serif, system-ui, -apple-system, Segoe UI, Roboto, sans-serif; fill: #f8fafc; }
      .metric { font: 700 26px ui-sans-serif, system-ui, -apple-system, Segoe UI, Roboto, sans-serif; fill: #f8fafc; }
    </style>
  </defs>

  <rect x="0" y="0" width="1200" height="960" fill="url(#bg)"/>

  <text x="40" y="48" class="h1">Piclaw RAM reduction progress</text>
  <text x="40" y="74" class="body">Generated from docs/performance/memory-footprint-history.md · latest commit 008c236a · 10 cold experiment steps · 8 live snapshots</text>

  <g filter="url(#shadow)">
    <rect x="40" y="100" width="350" height="128" rx="18" fill="#111827" stroke="#1f2937"/>
    <rect x="425" y="100" width="350" height="128" rx="18" fill="#111827" stroke="#1f2937"/>
    <rect x="810" y="100" width="350" height="128" rx="18" fill="#111827" stroke="#1f2937"/>
  </g>

  <text x="62" y="132" class="small">Cold-session improvement vs real workspace baseline</text>
  <text x="62" y="168" class="metric" fill="#60a5fa">-80.3%</text>
  <text x="62" y="190" class="body">RSS delta 133.3 → 26.3 MB · elapsed 630 → 175 ms</text>

  <text x="447" y="132" class="small">Live-service RSS progression (chronological)</text>
  <text x="447" y="168" class="metric" fill="#a78bfa">-51.0%</text>
  <text x="447" y="190" class="body">450.8 → 220.9 MB RSS · -53.9% from 478.7 MB peak</text>

  <text x="832" y="132" class="small">Current live service snapshot</text>
  <text x="832" y="162" class="small">Live settled</text>
  <text x="832" y="184" class="metric">220.9 MB</text>
  <text x="832" y="204" class="body">PSS 219.7 · heap 54.6 · external 22.2</text>
  <text x="832" y="222" class="small">Fresh post-start 218.3 RSS · heap 38.8 · ext 15.9</text>

  <g filter="url(#shadow)">
    <rect x="40" y="240" width="550" height="330" rx="22" fill="#111827" stroke="#1f2937"/>
    <rect x="610" y="240" width="550" height="330" rx="22" fill="#111827" stroke="#1f2937"/>
  </g>

  <text x="60" y="274" class="h2">Cold-session RSS delta (MB)</text>
  <text x="60" y="294" class="small">Experiment-step progression — ordered by changes, not wall-clock time</text>
  <text x="630" y="274" class="h2">Cold-session elapsed time (ms)</text>
  <text x="630" y="294" class="small">Same experiment steps as left chart; labels S1–S8 match across both plots</text>

  <line x1="70" y1="518.0" x2="570" y2="518.0" stroke="#233045" stroke-width="1"/>
<text x="34" y="522.0" class="axis">0</text>
<line x1="70" y1="448.0" x2="570" y2="448.0" stroke="#233045" stroke-width="1"/>
<text x="34" y="452.0" class="axis">50</text>
<line x1="70" y1="378.0" x2="570" y2="378.0" stroke="#233045" stroke-width="1"/>
<text x="34" y="382.0" class="axis">100</text>
<line x1="70" y1="308.0" x2="570" y2="308.0" stroke="#233045" stroke-width="1"/>
<text x="34" y="312.0" class="axis">150</text>
  <line x1="630" y1="518.0" x2="1130" y2="518.0" stroke="#233045" stroke-width="1"/>
<text x="594" y="522.0" class="axis">0</text>
<line x1="630" y1="465.5" x2="1130" y2="465.5" stroke="#233045" stroke-width="1"/>
<text x="594" y="469.5" class="axis">200</text>
<line x1="630" y1="413.0" x2="1130" y2="413.0" stroke="#233045" stroke-width="1"/>
<text x="594" y="417.0" class="axis">400</text>
<line x1="630" y1="360.5" x2="1130" y2="360.5" stroke="#233045" stroke-width="1"/>
<text x="594" y="364.5" class="axis">600</text>
<line x1="630" y1="308.0" x2="1130" y2="308.0" stroke="#233045" stroke-width="1"/>
<text x="594" y="312.0" class="axis">800</text>
  <rect x="88.0" y="401.4" width="31.6" height="116.6" rx="9" fill="url(#barBlue)"/>
<text x="103.8" y="393.4" text-anchor="middle" class="value">83.3</text>
<text x="103.8" y="531" text-anchor="middle" class="tiny">S1</text>
<text x="103.8" y="545" text-anchor="middle" class="small">Empty</text>
<text x="103.8" y="560" text-anchor="middle" class="small">baseline</text>
<rect x="133.6" y="331.4" width="31.6" height="186.6" rx="9" fill="url(#barBlue)"/>
<text x="149.4" y="323.4" text-anchor="middle" class="value">133.3</text>
<text x="149.4" y="531" text-anchor="middle" class="tiny">S2</text>
<text x="149.4" y="545" text-anchor="middle" class="small">Before</text>
<text x="149.4" y="560" text-anchor="middle" class="small">ext rm</text>
<rect x="179.2" y="404.2" width="31.6" height="113.8" rx="9" fill="url(#barBlue)"/>
<text x="195.0" y="396.2" text-anchor="middle" class="value">81.3</text>
<text x="195.0" y="531" text-anchor="middle" class="tiny">S3</text>
<text x="195.0" y="545" text-anchor="middle" class="small">After</text>
<text x="195.0" y="560" text-anchor="middle" class="small">ext rm</text>
<rect x="224.8" y="408.0" width="31.6" height="110.0" rx="9" fill="url(#barBlue)"/>
<text x="240.6" y="400.0" text-anchor="middle" class="value">78.6</text>
<text x="240.6" y="531" text-anchor="middle" class="tiny">S4</text>
<text x="240.6" y="545" text-anchor="middle" class="small">BG</text>
<text x="240.6" y="560" text-anchor="middle" class="small">indexer</text>
<rect x="270.4" y="400.0" width="31.6" height="118.0" rx="9" fill="url(#barBlue)"/>
<text x="286.2" y="392.0" text-anchor="middle" class="value">84.3</text>
<text x="286.2" y="531" text-anchor="middle" class="tiny">S5</text>
<text x="286.2" y="545" text-anchor="middle" class="small">Hook</text>
<text x="286.2" y="560" text-anchor="middle" class="small">trim</text>
<rect x="316.0" y="406.0" width="31.6" height="112.0" rx="9" fill="url(#barBlue)"/>
<text x="331.8" y="398.0" text-anchor="middle" class="value">80</text>
<text x="331.8" y="531" text-anchor="middle" class="tiny">S6</text>
<text x="331.8" y="545" text-anchor="middle" class="small">Gate</text>
<text x="331.8" y="560" text-anchor="middle" class="small">web</text>
<rect x="361.6" y="407.0" width="31.6" height="111.0" rx="9" fill="url(#barBlue)"/>
<text x="377.4" y="399.0" text-anchor="middle" class="value">79.3</text>
<text x="377.4" y="531" text-anchor="middle" class="tiny">S7</text>
<text x="377.4" y="545" text-anchor="middle" class="small">Gate</text>
<text x="377.4" y="560" text-anchor="middle" class="small">non-web</text>
<rect x="407.2" y="482.6" width="31.6" height="35.4" rx="9" fill="url(#barBlue)"/>
<text x="423.0" y="474.6" text-anchor="middle" class="value">25.3</text>
<text x="423.0" y="531" text-anchor="middle" class="tiny">S8</text>
<text x="423.0" y="545" text-anchor="middle" class="small">Lazy</text>
<text x="423.0" y="560" text-anchor="middle" class="small">heavy</text>
<rect x="452.8" y="480.3" width="31.6" height="37.7" rx="9" fill="url(#barBlue)"/>
<text x="468.6" y="472.3" text-anchor="middle" class="value">26.9</text>
<text x="468.6" y="531" text-anchor="middle" class="tiny">S9</text>
<text x="468.6" y="545" text-anchor="middle" class="small">Azure</text>
<text x="468.6" y="560" text-anchor="middle" class="small">bootstrap</text>
<rect x="498.4" y="481.2" width="31.6" height="36.8" rx="9" fill="url(#barBlue)"/>
<text x="514.2" y="473.2" text-anchor="middle" class="value">26.3</text>
<text x="514.2" y="531" text-anchor="middle" class="tiny">S10</text>
<text x="514.2" y="545" text-anchor="middle" class="small">Azure</text>
<text x="514.2" y="560" text-anchor="middle" class="small">images</text>
  <rect x="648.0" y="420.9" width="31.6" height="97.1" rx="9" fill="url(#barGreen)"/>
<text x="663.8" y="412.9" text-anchor="middle" class="value">370</text>
<text x="663.8" y="531" text-anchor="middle" class="tiny">S1</text>
<text x="663.8" y="545" text-anchor="middle" class="small">Empty</text>
<text x="663.8" y="560" text-anchor="middle" class="small">baseline</text>
<rect x="693.6" y="352.6" width="31.6" height="165.4" rx="9" fill="url(#barGreen)"/>
<text x="709.4" y="344.6" text-anchor="middle" class="value">630</text>
<text x="709.4" y="531" text-anchor="middle" class="tiny">S2</text>
<text x="709.4" y="545" text-anchor="middle" class="small">Before</text>
<text x="709.4" y="560" text-anchor="middle" class="small">ext rm</text>
<rect x="739.2" y="435.6" width="31.6" height="82.4" rx="9" fill="url(#barGreen)"/>
<text x="755.0" y="427.6" text-anchor="middle" class="value">314</text>
<text x="755.0" y="531" text-anchor="middle" class="tiny">S3</text>
<text x="755.0" y="545" text-anchor="middle" class="small">After</text>
<text x="755.0" y="560" text-anchor="middle" class="small">ext rm</text>
<rect x="784.8" y="434.8" width="31.6" height="83.2" rx="9" fill="url(#barGreen)"/>
<text x="800.6" y="426.8" text-anchor="middle" class="value">317</text>
<text x="800.6" y="531" text-anchor="middle" class="tiny">S4</text>
<text x="800.6" y="545" text-anchor="middle" class="small">BG</text>
<text x="800.6" y="560" text-anchor="middle" class="small">indexer</text>
<rect x="830.4" y="440.6" width="31.6" height="77.4" rx="9" fill="url(#barGreen)"/>
<text x="846.2" y="432.6" text-anchor="middle" class="value">295</text>
<text x="846.2" y="531" text-anchor="middle" class="tiny">S5</text>
<text x="846.2" y="545" text-anchor="middle" class="small">Hook</text>
<text x="846.2" y="560" text-anchor="middle" class="small">trim</text>
<rect x="876.0" y="440.3" width="31.6" height="77.7" rx="9" fill="url(#barGreen)"/>
<text x="891.8" y="432.3" text-anchor="middle" class="value">296</text>
<text x="891.8" y="531" text-anchor="middle" class="tiny">S6</text>
<text x="891.8" y="545" text-anchor="middle" class="small">Gate</text>
<text x="891.8" y="560" text-anchor="middle" class="small">web</text>
<rect x="921.6" y="445.3" width="31.6" height="72.7" rx="9" fill="url(#barGreen)"/>
<text x="937.4" y="437.3" text-anchor="middle" class="value">277</text>
<text x="937.4" y="531" text-anchor="middle" class="tiny">S7</text>
<text x="937.4" y="545" text-anchor="middle" class="small">Gate</text>
<text x="937.4" y="560" text-anchor="middle" class="small">non-web</text>
<rect x="967.2" y="461.6" width="31.6" height="56.4" rx="9" fill="url(#barGreen)"/>
<text x="983.0" y="453.6" text-anchor="middle" class="value">215</text>
<text x="983.0" y="531" text-anchor="middle" class="tiny">S8</text>
<text x="983.0" y="545" text-anchor="middle" class="small">Lazy</text>
<text x="983.0" y="560" text-anchor="middle" class="small">heavy</text>
<rect x="1012.8" y="473.6" width="31.6" height="44.4" rx="9" fill="url(#barGreen)"/>
<text x="1028.6" y="465.6" text-anchor="middle" class="value">169</text>
<text x="1028.6" y="531" text-anchor="middle" class="tiny">S9</text>
<text x="1028.6" y="545" text-anchor="middle" class="small">Azure</text>
<text x="1028.6" y="560" text-anchor="middle" class="small">bootstrap</text>
<rect x="1058.4" y="472.1" width="31.6" height="45.9" rx="9" fill="url(#barGreen)"/>
<text x="1074.2" y="464.1" text-anchor="middle" class="value">175</text>
<text x="1074.2" y="531" text-anchor="middle" class="tiny">S10</text>
<text x="1074.2" y="545" text-anchor="middle" class="small">Azure</text>
<text x="1074.2" y="560" text-anchor="middle" class="small">images</text>

  <g filter="url(#shadow)">
    <rect x="40" y="600" width="1120" height="250" rx="22" fill="#111827" stroke="#1f2937"/>
  </g>
  <text x="60" y="634" class="h2">Live-service memory timeline</text>
  <text x="60" y="654" class="small">Actual chronological service history from the live-snapshot table</text>
  <rect x="840" y="623" width="14" height="14" rx="4" fill="#60a5fa"/><text x="862" y="634" class="small">RSS</text>
  <rect x="920" y="623" width="14" height="14" rx="4" fill="#a78bfa"/><text x="942" y="634" class="small">PSS</text>
  <line x1="90" y1="800.0" x2="1110" y2="800.0" stroke="#233045" stroke-width="1"/>
<text x="56" y="804.0" class="axis">0</text>
<line x1="90" y1="761.3" x2="1110" y2="761.3" stroke="#233045" stroke-width="1"/>
<text x="56" y="765.3" class="axis">150</text>
<line x1="90" y1="722.5" x2="1110" y2="722.5" stroke="#233045" stroke-width="1"/>
<text x="56" y="726.5" class="axis">300</text>
<line x1="90" y1="683.8" x2="1110" y2="683.8" stroke="#233045" stroke-width="1"/>
<text x="56" y="687.8" class="axis">450</text>
<line x1="90" y1="645.0" x2="1110" y2="645.0" stroke="#233045" stroke-width="1"/>
<text x="56" y="649.0" class="axis">600</text>
<path d="M 90.0 683.5 C 138.6 683.5, 187.1 676.3, 235.7 676.3 C 284.3 676.3, 332.9 727.5, 381.4 727.5 C 430.0 727.5, 478.6 740.7, 527.1 740.7 C 575.7 740.7, 624.3 743.8, 672.9 743.8 C 721.4 743.8, 770.0 734.4, 818.6 734.4 C 867.1 734.4, 915.7 729.9, 964.3 729.9 C 1012.9 729.9, 1061.4 742.9, 1110.0 742.9" fill="none" stroke="#60a5fa" stroke-width="3.5" stroke-linecap="round" stroke-linejoin="round"/>
<path d="M 90.0 683.8 C 138.6 683.8, 187.1 676.6, 235.7 676.6 C 284.3 676.6, 332.9 729.6, 381.4 729.6 C 430.0 729.6, 478.6 742.3, 527.1 742.3 C 575.7 742.3, 624.3 744.1, 672.9 744.1 C 721.4 744.1, 770.0 734.6, 818.6 734.6 C 867.1 734.6, 915.7 735.5, 964.3 735.5 C 1012.9 735.5, 1061.4 743.2, 1110.0 743.2" fill="none" stroke="#a78bfa" stroke-width="3" stroke-linecap="round" stroke-linejoin="round" opacity="0.95"/>
<circle cx="90.0" cy="683.5" r="5.5" fill="#60a5fa"/>
<circle cx="90.0" cy="683.8" r="4.5" fill="#a78bfa"/>
<text x="90.0" y="673.5" text-anchor="middle" class="value">450.8</text>
<text x="90.0" y="824" text-anchor="middle" class="small">18:02Z</text>
<text x="90.0" y="840" text-anchor="middle" class="tiny">bg index baseline</text>
<circle cx="235.7" cy="676.3" r="5.5" fill="#60a5fa"/>
<circle cx="235.7" cy="676.6" r="4.5" fill="#a78bfa"/>
<text x="235.7" y="666.3" text-anchor="middle" class="value">478.7</text>
<text x="235.7" y="824" text-anchor="middle" class="small">20:00Z</text>
<text x="235.7" y="840" text-anchor="middle" class="tiny">interactive probe</text>
<circle cx="381.4" cy="727.5" r="5.5" fill="#60a5fa"/>
<circle cx="381.4" cy="729.6" r="4.5" fill="#a78bfa"/>
<text x="381.4" y="717.5" text-anchor="middle" class="value">280.8</text>
<text x="381.4" y="824" text-anchor="middle" class="small">20:25Z</text>
<text x="381.4" y="840" text-anchor="middle" class="tiny">post rotate</text>
<circle cx="527.1" cy="740.7" r="5.5" fill="#60a5fa"/>
<circle cx="527.1" cy="742.3" r="4.5" fill="#a78bfa"/>
<text x="527.1" y="730.7" text-anchor="middle" class="value">229.6</text>
<text x="527.1" y="824" text-anchor="middle" class="small">20:54Z</text>
<text x="527.1" y="840" text-anchor="middle" class="tiny">service after installing the</text>
<circle cx="672.9" cy="743.8" r="5.5" fill="#60a5fa"/>
<circle cx="672.9" cy="744.1" r="4.5" fill="#a78bfa"/>
<text x="672.9" y="733.8" text-anchor="middle" class="value">217.7</text>
<text x="672.9" y="824" text-anchor="middle" class="small">22:03Z</text>
<text x="672.9" y="840" text-anchor="middle" class="tiny">service after installing the</text>
<circle cx="818.6" cy="734.4" r="5.5" fill="#60a5fa"/>
<circle cx="818.6" cy="734.6" r="4.5" fill="#a78bfa"/>
<text x="818.6" y="724.4" text-anchor="middle" class="value">254.1</text>
<text x="818.6" y="824" text-anchor="middle" class="small">22:58Z</text>
<text x="818.6" y="840" text-anchor="middle" class="tiny">service after installing the</text>
<circle cx="964.3" cy="729.9" r="5.5" fill="#60a5fa"/>
<circle cx="964.3" cy="735.5" r="4.5" fill="#a78bfa"/>
<text x="964.3" y="719.9" text-anchor="middle" class="value">271.5</text>
<text x="964.3" y="824" text-anchor="middle" class="small">23:28Z</text>
<text x="964.3" y="840" text-anchor="middle" class="tiny">service after the later 23:0</text>
<circle cx="1110.0" cy="742.9" r="5.5" fill="#60a5fa"/>
<circle cx="1110.0" cy="743.2" r="4.5" fill="#a78bfa"/>
<text x="1110.0" y="732.9" text-anchor="middle" class="value">220.9</text>
<text x="1110.0" y="824" text-anchor="middle" class="small">23:32Z</text>
<text x="1110.0" y="840" text-anchor="middle" class="tiny">service shortly after the 23</text>

  <g filter="url(#shadow)">
    <rect x="40" y="860" width="1120" height="78" rx="18" fill="#111827" stroke="#1f2937"/>
  </g>
  <text x="60" y="885" class="body">Cold experiments: real-workspace RSS delta 133.3 MB → 26.3 MB (-80.3%); elapsed 630 ms → 175 ms (-72.2%).</text>
  <text x="60" y="903" class="body">Live service: 450.8 MB RSS at 18:02Z → 220.9 MB at 23:32Z (-51.0%); peak was 478.7 MB at 20:00Z.</text>
  <text x="60" y="921" class="body">Fresh post-start sample from the latest restart: 218.3 MB RSS / 38.8 MB heap / 15.9 MB external.</text>
</svg>