<svg xmlns="http://www.w3.org/2000/svg" width="1200" height="960" viewBox="0 0 1200 960" role="img" aria-labelledby="title desc">
  <title id="title">Piclaw RAM reduction progress</title>
  <desc id="desc">Cold-session experiment progression and chronological live-service memory history from docs/performance/memory-footprint-history.md.</desc>
  <defs>
    <linearGradient id="bg" x1="0" y1="0" x2="0" y2="1">
      <stop offset="0%" stop-color="#0f172a"/>
      <stop offset="100%" stop-color="#111827"/>
    </linearGradient>
    <linearGradient id="barBlue" x1="0" y1="0" x2="0" y2="1">
      <stop offset="0%" stop-color="#60a5fa"/>
      <stop offset="100%" stop-color="#2563eb"/>
    </linearGradient>
    <linearGradient id="barGreen" x1="0" y1="0" x2="0" y2="1">
      <stop offset="0%" stop-color="#34d399"/>
      <stop offset="100%" stop-color="#059669"/>
    </linearGradient>
    <filter id="shadow" x="-20%" y="-20%" width="140%" height="140%">
      <feDropShadow dx="0" dy="8" stdDeviation="16" flood-color="#000000" flood-opacity="0.35"/>
    </filter>
    <style>
      .h1 { font: 700 28px ui-sans-serif, system-ui, -apple-system, Segoe UI, Roboto, sans-serif; fill: #f8fafc; }
      .h2 { font: 700 18px ui-sans-serif, system-ui, -apple-system, Segoe UI, Roboto, sans-serif; fill: #e5e7eb; }
      .body { font: 13px ui-sans-serif, system-ui, -apple-system, Segoe UI, Roboto, sans-serif; fill: #cbd5e1; }
      .small { font: 12px ui-sans-serif, system-ui, -apple-system, Segoe UI, Roboto, sans-serif; fill: #94a3b8; }
      .tiny { font: 11px ui-sans-serif, system-ui, -apple-system, Segoe UI, Roboto, sans-serif; fill: #7c8aa5; }
      .axis { font: 12px ui-sans-serif, system-ui, -apple-system, Segoe UI, Roboto, sans-serif; fill: #94a3b8; }
      .value { font: 700 12px ui-sans-serif, system-ui, -apple-system, Segoe UI, Roboto, sans-serif; fill: #f8fafc; }
      .metric { font: 700 26px ui-sans-serif, system-ui, -apple-system, Segoe UI, Roboto, sans-serif; fill: #f8fafc; }
    </style>
  </defs>

  <rect x="0" y="0" width="1200" height="960" fill="url(#bg)"/>

  <text x="40" y="48" class="h1">Piclaw RAM reduction progress</text>
  <text x="40" y="74" class="body">Generated from docs/performance/memory-footprint-history.md · latest commit 0943907f · 8 cold experiment steps · 6 live snapshots</text>

  <g filter="url(#shadow)">
    <rect x="40" y="100" width="350" height="112" rx="18" fill="#111827" stroke="#1f2937"/>
    <rect x="425" y="100" width="350" height="112" rx="18" fill="#111827" stroke="#1f2937"/>
    <rect x="810" y="100" width="350" height="112" rx="18" fill="#111827" stroke="#1f2937"/>
  </g>

  <text x="62" y="132" class="small">Cold-session improvement vs real workspace baseline</text>
  <text x="62" y="168" class="metric" fill="#60a5fa">-81.0%</text>
  <text x="62" y="190" class="body">RSS delta 133.3 → 25.3 MB · elapsed 630 → 215 ms</text>

  <text x="447" y="132" class="small">Live-service RSS progression (chronological)</text>
  <text x="447" y="168" class="metric" fill="#a78bfa">-43.6%</text>
  <text x="447" y="190" class="body">450.8 → 254.1 MB RSS · -46.9% from 478.7 MB peak</text>

  <text x="832" y="132" class="small">Current live service snapshot</text>
  <text x="832" y="168" class="metric">254.1 MB</text>
  <text x="832" y="190" class="body">PSS 253.2 · heap 93.1 · external 61.5</text>

  <g filter="url(#shadow)">
    <rect x="40" y="240" width="550" height="330" rx="22" fill="#111827" stroke="#1f2937"/>
    <rect x="610" y="240" width="550" height="330" rx="22" fill="#111827" stroke="#1f2937"/>
  </g>

  <text x="60" y="274" class="h2">Cold-session RSS delta (MB)</text>
  <text x="60" y="294" class="small">Experiment-step progression — ordered by changes, not wall-clock time</text>
  <text x="630" y="274" class="h2">Cold-session elapsed time (ms)</text>
  <text x="630" y="294" class="small">Same experiment steps as left chart; labels S1–S8 match across both plots</text>

  <line x1="70" y1="518.0" x2="570" y2="518.0" stroke="#233045" stroke-width="1"/>
<text x="34" y="522.0" class="axis">0</text>
<line x1="70" y1="448.0" x2="570" y2="448.0" stroke="#233045" stroke-width="1"/>
<text x="34" y="452.0" class="axis">50</text>
<line x1="70" y1="378.0" x2="570" y2="378.0" stroke="#233045" stroke-width="1"/>
<text x="34" y="382.0" class="axis">100</text>
<line x1="70" y1="308.0" x2="570" y2="308.0" stroke="#233045" stroke-width="1"/>
<text x="34" y="312.0" class="axis">150</text>
  <line x1="630" y1="518.0" x2="1130" y2="518.0" stroke="#233045" stroke-width="1"/>
<text x="594" y="522.0" class="axis">0</text>
<line x1="630" y1="465.5" x2="1130" y2="465.5" stroke="#233045" stroke-width="1"/>
<text x="594" y="469.5" class="axis">200</text>
<line x1="630" y1="413.0" x2="1130" y2="413.0" stroke="#233045" stroke-width="1"/>
<text x="594" y="417.0" class="axis">400</text>
<line x1="630" y1="360.5" x2="1130" y2="360.5" stroke="#233045" stroke-width="1"/>
<text x="594" y="364.5" class="axis">600</text>
<line x1="630" y1="308.0" x2="1130" y2="308.0" stroke="#233045" stroke-width="1"/>
<text x="594" y="312.0" class="axis">800</text>
  <rect x="88.0" y="401.4" width="43.0" height="116.6" rx="9" fill="url(#barBlue)"/>
<text x="109.5" y="393.4" text-anchor="middle" class="value">83.3</text>
<text x="109.5" y="531" text-anchor="middle" class="tiny">S1</text>
<text x="109.5" y="545" text-anchor="middle" class="small">Empty</text>
<text x="109.5" y="560" text-anchor="middle" class="small">baseline</text>
<rect x="145.0" y="331.4" width="43.0" height="186.6" rx="9" fill="url(#barBlue)"/>
<text x="166.5" y="323.4" text-anchor="middle" class="value">133.3</text>
<text x="166.5" y="531" text-anchor="middle" class="tiny">S2</text>
<text x="166.5" y="545" text-anchor="middle" class="small">Before</text>
<text x="166.5" y="560" text-anchor="middle" class="small">ext rm</text>
<rect x="202.0" y="404.2" width="43.0" height="113.8" rx="9" fill="url(#barBlue)"/>
<text x="223.5" y="396.2" text-anchor="middle" class="value">81.3</text>
<text x="223.5" y="531" text-anchor="middle" class="tiny">S3</text>
<text x="223.5" y="545" text-anchor="middle" class="small">After</text>
<text x="223.5" y="560" text-anchor="middle" class="small">ext rm</text>
<rect x="259.0" y="408.0" width="43.0" height="110.0" rx="9" fill="url(#barBlue)"/>
<text x="280.5" y="400.0" text-anchor="middle" class="value">78.6</text>
<text x="280.5" y="531" text-anchor="middle" class="tiny">S4</text>
<text x="280.5" y="545" text-anchor="middle" class="small">BG</text>
<text x="280.5" y="560" text-anchor="middle" class="small">indexer</text>
<rect x="316.0" y="400.0" width="43.0" height="118.0" rx="9" fill="url(#barBlue)"/>
<text x="337.5" y="392.0" text-anchor="middle" class="value">84.3</text>
<text x="337.5" y="531" text-anchor="middle" class="tiny">S5</text>
<text x="337.5" y="545" text-anchor="middle" class="small">Hook</text>
<text x="337.5" y="560" text-anchor="middle" class="small">trim</text>
<rect x="373.0" y="406.0" width="43.0" height="112.0" rx="9" fill="url(#barBlue)"/>
<text x="394.5" y="398.0" text-anchor="middle" class="value">80</text>
<text x="394.5" y="531" text-anchor="middle" class="tiny">S6</text>
<text x="394.5" y="545" text-anchor="middle" class="small">Gate</text>
<text x="394.5" y="560" text-anchor="middle" class="small">web</text>
<rect x="430.0" y="407.0" width="43.0" height="111.0" rx="9" fill="url(#barBlue)"/>
<text x="451.5" y="399.0" text-anchor="middle" class="value">79.3</text>
<text x="451.5" y="531" text-anchor="middle" class="tiny">S7</text>
<text x="451.5" y="545" text-anchor="middle" class="small">Gate</text>
<text x="451.5" y="560" text-anchor="middle" class="small">non-web</text>
<rect x="487.0" y="482.6" width="43.0" height="35.4" rx="9" fill="url(#barBlue)"/>
<text x="508.5" y="474.6" text-anchor="middle" class="value">25.3</text>
<text x="508.5" y="531" text-anchor="middle" class="tiny">S8</text>
<text x="508.5" y="545" text-anchor="middle" class="small">Lazy</text>
<text x="508.5" y="560" text-anchor="middle" class="small">heavy</text>
  <rect x="648.0" y="420.9" width="43.0" height="97.1" rx="9" fill="url(#barGreen)"/>
<text x="669.5" y="412.9" text-anchor="middle" class="value">370</text>
<text x="669.5" y="531" text-anchor="middle" class="tiny">S1</text>
<text x="669.5" y="545" text-anchor="middle" class="small">Empty</text>
<text x="669.5" y="560" text-anchor="middle" class="small">baseline</text>
<rect x="705.0" y="352.6" width="43.0" height="165.4" rx="9" fill="url(#barGreen)"/>
<text x="726.5" y="344.6" text-anchor="middle" class="value">630</text>
<text x="726.5" y="531" text-anchor="middle" class="tiny">S2</text>
<text x="726.5" y="545" text-anchor="middle" class="small">Before</text>
<text x="726.5" y="560" text-anchor="middle" class="small">ext rm</text>
<rect x="762.0" y="435.6" width="43.0" height="82.4" rx="9" fill="url(#barGreen)"/>
<text x="783.5" y="427.6" text-anchor="middle" class="value">314</text>
<text x="783.5" y="531" text-anchor="middle" class="tiny">S3</text>
<text x="783.5" y="545" text-anchor="middle" class="small">After</text>
<text x="783.5" y="560" text-anchor="middle" class="small">ext rm</text>
<rect x="819.0" y="434.8" width="43.0" height="83.2" rx="9" fill="url(#barGreen)"/>
<text x="840.5" y="426.8" text-anchor="middle" class="value">317</text>
<text x="840.5" y="531" text-anchor="middle" class="tiny">S4</text>
<text x="840.5" y="545" text-anchor="middle" class="small">BG</text>
<text x="840.5" y="560" text-anchor="middle" class="small">indexer</text>
<rect x="876.0" y="440.6" width="43.0" height="77.4" rx="9" fill="url(#barGreen)"/>
<text x="897.5" y="432.6" text-anchor="middle" class="value">295</text>
<text x="897.5" y="531" text-anchor="middle" class="tiny">S5</text>
<text x="897.5" y="545" text-anchor="middle" class="small">Hook</text>
<text x="897.5" y="560" text-anchor="middle" class="small">trim</text>
<rect x="933.0" y="440.3" width="43.0" height="77.7" rx="9" fill="url(#barGreen)"/>
<text x="954.5" y="432.3" text-anchor="middle" class="value">296</text>
<text x="954.5" y="531" text-anchor="middle" class="tiny">S6</text>
<text x="954.5" y="545" text-anchor="middle" class="small">Gate</text>
<text x="954.5" y="560" text-anchor="middle" class="small">web</text>
<rect x="990.0" y="445.3" width="43.0" height="72.7" rx="9" fill="url(#barGreen)"/>
<text x="1011.5" y="437.3" text-anchor="middle" class="value">277</text>
<text x="1011.5" y="531" text-anchor="middle" class="tiny">S7</text>
<text x="1011.5" y="545" text-anchor="middle" class="small">Gate</text>
<text x="1011.5" y="560" text-anchor="middle" class="small">non-web</text>
<rect x="1047.0" y="461.6" width="43.0" height="56.4" rx="9" fill="url(#barGreen)"/>
<text x="1068.5" y="453.6" text-anchor="middle" class="value">215</text>
<text x="1068.5" y="531" text-anchor="middle" class="tiny">S8</text>
<text x="1068.5" y="545" text-anchor="middle" class="small">Lazy</text>
<text x="1068.5" y="560" text-anchor="middle" class="small">heavy</text>

  <g filter="url(#shadow)">
    <rect x="40" y="600" width="1120" height="250" rx="22" fill="#111827" stroke="#1f2937"/>
  </g>
  <text x="60" y="634" class="h2">Live-service memory timeline</text>
  <text x="60" y="654" class="small">Actual chronological service history from the live-snapshot table</text>
  <rect x="840" y="623" width="14" height="14" rx="4" fill="#60a5fa"/><text x="862" y="634" class="small">RSS</text>
  <rect x="920" y="623" width="14" height="14" rx="4" fill="#a78bfa"/><text x="942" y="634" class="small">PSS</text>
  <line x1="90" y1="800.0" x2="1110" y2="800.0" stroke="#233045" stroke-width="1"/>
<text x="56" y="804.0" class="axis">0</text>
<line x1="90" y1="761.3" x2="1110" y2="761.3" stroke="#233045" stroke-width="1"/>
<text x="56" y="765.3" class="axis">150</text>
<line x1="90" y1="722.5" x2="1110" y2="722.5" stroke="#233045" stroke-width="1"/>
<text x="56" y="726.5" class="axis">300</text>
<line x1="90" y1="683.8" x2="1110" y2="683.8" stroke="#233045" stroke-width="1"/>
<text x="56" y="687.8" class="axis">450</text>
<line x1="90" y1="645.0" x2="1110" y2="645.0" stroke="#233045" stroke-width="1"/>
<text x="56" y="649.0" class="axis">600</text>
<path d="M 90.0 683.5 C 158.0 683.5, 226.0 676.3, 294.0 676.3 C 362.0 676.3, 430.0 727.5, 498.0 727.5 C 566.0 727.5, 634.0 740.7, 702.0 740.7 C 770.0 740.7, 838.0 743.8, 906.0 743.8 C 974.0 743.8, 1042.0 734.4, 1110.0 734.4" fill="none" stroke="#60a5fa" stroke-width="3.5" stroke-linecap="round" stroke-linejoin="round"/>
<path d="M 90.0 683.8 C 158.0 683.8, 226.0 676.6, 294.0 676.6 C 362.0 676.6, 430.0 729.6, 498.0 729.6 C 566.0 729.6, 634.0 742.3, 702.0 742.3 C 770.0 742.3, 838.0 744.1, 906.0 744.1 C 974.0 744.1, 1042.0 734.6, 1110.0 734.6" fill="none" stroke="#a78bfa" stroke-width="3" stroke-linecap="round" stroke-linejoin="round" opacity="0.95"/>
<circle cx="90.0" cy="683.5" r="5.5" fill="#60a5fa"/>
<circle cx="90.0" cy="683.8" r="4.5" fill="#a78bfa"/>
<text x="90.0" y="673.5" text-anchor="middle" class="value">450.8</text>
<text x="90.0" y="824" text-anchor="middle" class="small">18:02Z</text>
<text x="90.0" y="840" text-anchor="middle" class="tiny">bg index baseline</text>
<circle cx="294.0" cy="676.3" r="5.5" fill="#60a5fa"/>
<circle cx="294.0" cy="676.6" r="4.5" fill="#a78bfa"/>
<text x="294.0" y="666.3" text-anchor="middle" class="value">478.7</text>
<text x="294.0" y="824" text-anchor="middle" class="small">20:00Z</text>
<text x="294.0" y="840" text-anchor="middle" class="tiny">interactive probe</text>
<circle cx="498.0" cy="727.5" r="5.5" fill="#60a5fa"/>
<circle cx="498.0" cy="729.6" r="4.5" fill="#a78bfa"/>
<text x="498.0" y="717.5" text-anchor="middle" class="value">280.8</text>
<text x="498.0" y="824" text-anchor="middle" class="small">20:25Z</text>
<text x="498.0" y="840" text-anchor="middle" class="tiny">post rotate</text>
<circle cx="702.0" cy="740.7" r="5.5" fill="#60a5fa"/>
<circle cx="702.0" cy="742.3" r="4.5" fill="#a78bfa"/>
<text x="702.0" y="730.7" text-anchor="middle" class="value">229.6</text>
<text x="702.0" y="824" text-anchor="middle" class="small">20:54Z</text>
<text x="702.0" y="840" text-anchor="middle" class="tiny">service after installing the</text>
<circle cx="906.0" cy="743.8" r="5.5" fill="#60a5fa"/>
<circle cx="906.0" cy="744.1" r="4.5" fill="#a78bfa"/>
<text x="906.0" y="733.8" text-anchor="middle" class="value">217.7</text>
<text x="906.0" y="824" text-anchor="middle" class="small">22:03Z</text>
<text x="906.0" y="840" text-anchor="middle" class="tiny">service after installing the</text>
<circle cx="1110.0" cy="734.4" r="5.5" fill="#60a5fa"/>
<circle cx="1110.0" cy="734.6" r="4.5" fill="#a78bfa"/>
<text x="1110.0" y="724.4" text-anchor="middle" class="value">254.1</text>
<text x="1110.0" y="824" text-anchor="middle" class="small">22:58Z</text>
<text x="1110.0" y="840" text-anchor="middle" class="tiny">service after installing the</text>

  <g filter="url(#shadow)">
    <rect x="40" y="875" width="1120" height="60" rx="18" fill="#111827" stroke="#1f2937"/>
  </g>
  <text x="60" y="900" class="body">Cold experiments: real-workspace RSS delta 133.3 MB → 25.3 MB (-81.0%); elapsed 630 ms → 215 ms (-65.9%).</text>
  <text x="60" y="918" class="body">Live service: 450.8 MB RSS at 18:02Z → 254.1 MB at 22:58Z (-43.6%); peak was 478.7 MB at 20:00Z.</text>
</svg>